<?xml version="1.0" encoding="iso-8859-1"?>
<!-- Generator: Adobe Illustrator 16.0.0, SVG Export Plug-In . SVG Version: 6.00 Build 0)  -->
<!DOCTYPE svg PUBLIC "-//W3C//DTD SVG 1.1//EN" "http://www.w3.org/Graphics/SVG/1.1/DTD/svg11.dtd">
<svg version="1.1" id="Capa_1" xmlns="http://www.w3.org/2000/svg" xmlns:xlink="http://www.w3.org/1999/xlink" x="0px" y="0px"
	 width="32.088px" height="32.088px" viewBox="0 0 32.088 32.088" style="enable-background:new 0 0 32.088 32.088;"
	 xml:space="preserve">
<g>
	<g>
		<path d="M16.211,26.282L0,26.302c-0.004-3.283,2.257-4.639,5.41-5.068l1.816,3.553l0.284-2.312l-0.448-0.367l0.992-0.002h1.084
			L8.69,22.472l0.291,2.309l1.809-3.553C13.942,21.649,16.208,22.999,16.211,26.282z M4.7,17.216
			c0.009-0.002,0.017-0.01,0.025-0.014c0.546,1.967,1.956,3.438,3.384,3.469c1.303-0.061,2.9-1.51,3.432-3.467
			c0.245,0.014,0.488-0.275,0.559-0.678c0.069-0.418-0.081-0.795-0.334-0.836c-0.016-0.004-0.031,0.006-0.047,0.008
			c-0.079-3.24-1.616-4.377-3.555-4.424c-1.997,0.012-3.783,1.401-3.667,4.434c-0.018-0.002-0.037-0.012-0.057-0.01
			c-0.25,0.045-0.4,0.418-0.328,0.838C4.184,16.956,4.446,17.259,4.7,17.216z M32.088,5.786v14.5H13.262v-14.5H32.088z
			 M27.816,11.931v-2.07h-2.922v2.923h2.412L27.816,11.931z M21.298,12.778l0.015,0.004h2.907V9.86h-2.922V12.778z M17.729,16.38
			h2.896v-2.771C19.467,14.72,18.51,15.636,17.729,16.38z M19.809,13.458h-2.105v2.012C18.41,14.796,19.133,14.105,19.809,13.458z
			 M21.298,16.38h2.922v-1.723l-2.922-1.154V16.38z M24.221,13.931v-0.473h-1.199L24.221,13.931z M24.896,14.198l1.263,0.498
			l0.743-1.238h-2.006V14.198z M28.492,10.808l0.566-0.947h-0.566V10.808z M29.464,9.187l1.638-2.727h-2.607v2.727H29.464z
			 M27.816,6.46h-2.922v2.727h2.922V6.46z M24.221,6.46h-2.922v2.727h2.922V6.46z M20.624,6.46h-2.922v2.727h2.922V6.46z
			 M17.702,9.86v2.922h2.808c0.025-0.023,0.055-0.049,0.078-0.074l0.037-0.035V9.861L17.702,9.86L17.702,9.86z M17.025,9.86h-3.088
			v2.922h3.088V9.86z M13.937,13.458v2.922h2.808c0.094-0.088,0.188-0.178,0.282-0.268v-2.654H13.937z M13.937,17.054v1.938
			c0.356-0.31,1.134-1.031,2.094-1.938H13.937z M17.018,17.054c-1.799,1.699-2.498,2.322-2.785,2.557h2.792v-2.557H17.018z
			 M17.702,19.61h2.922v-2.559h-2.922V19.61z M21.298,19.61h2.922v-2.559h-2.922V19.61z M24.896,19.61h2.922v-2.559h-2.922V19.61z
			 M27.816,16.38v-2.922h-0.129l-1.246,2.076l-1.547-0.611v1.457H27.816z M28.492,16.38h2.922v-2.922h-2.922V16.38z M31.414,12.782
			V9.86h-1.568l-1.354,2.258v0.664H31.414z M31.414,9.187V7.249l-1.163,1.938H31.414z M13.937,6.46v2.727h3.088V6.46H13.937z
			 M13.937,19.61h0.028l-0.028-0.082V19.61z M31.414,19.61v-2.559h-2.922v2.559H31.414z"/>
	</g>
</g>
<g>
</g>
<g>
</g>
<g>
</g>
<g>
</g>
<g>
</g>
<g>
</g>
<g>
</g>
<g>
</g>
<g>
</g>
<g>
</g>
<g>
</g>
<g>
</g>
<g>
</g>
<g>
</g>
<g>
</g>
</svg>
