<?xml version="1.0" encoding="iso-8859-1"?>
<!-- Generator: Adobe Illustrator 19.0.0, SVG Export Plug-In . SVG Version: 6.00 Build 0)  -->
<svg version="1.1" id="Layer_1" xmlns="http://www.w3.org/2000/svg" xmlns:xlink="http://www.w3.org/1999/xlink" x="0px" y="0px"
	 viewBox="0 0 512 512" style="enable-background:new 0 0 512 512;" xml:space="preserve">
<g transform="translate(0 -1)">
	<g>
		<g>
			<path d="M486.4,111.934c14.142,0,25.6-11.458,25.6-25.6c0-14.142-11.458-25.6-25.6-25.6H51.2V43.668
				c0-14.142-11.458-25.6-25.6-25.6c-14.142,0-25.6,11.458-25.6,25.6v238.933c0,14.142,11.458,25.6,25.6,25.6
				c14.142,0,25.6-11.458,25.6-25.6v-17.067c0-79.134,59.679-144.177,136.533-152.654v109.985h-25.6
				c-4.713,0-8.533,3.82-8.533,8.533v256c0,4.713,3.82,8.533,8.533,8.533H486.4c4.713,0,8.533-3.82,8.533-8.533v-256
				c0-4.713-3.82-8.533-8.533-8.533h-25.6V111.934H486.4z M486.4,77.801c4.716,0,8.533,3.817,8.533,8.533
				c0,4.716-3.817,8.533-8.533,8.533H51.2V77.801H486.4z M34.133,282.601c0,4.716-3.817,8.533-8.533,8.533
				c-4.716,0-8.533-3.817-8.533-8.533V43.668c0-4.716,3.817-8.533,8.533-8.533c4.717,0,8.533,3.817,8.533,8.533v25.6v34.133V282.601
				z M51.2,191.009v-79.074h79.074C95.853,128.649,67.914,156.587,51.2,191.009z M477.867,478.866h-307.2V239.932h25.566
				c0.011,0,0.022,0.002,0.034,0.002s0.022-0.002,0.034-0.002h255.932c0.011,0,0.022,0.002,0.034,0.002s0.022-0.002,0.034-0.002
				h25.566V478.866z M443.733,222.866H204.8V111.934h238.933V222.866z"/>
			<path d="M452.267,256.999h-256c-4.713,0-8.533,3.82-8.533,8.533v187.733c0,4.713,3.82,8.533,8.533,8.533h256
				c4.713,0,8.533-3.82,8.533-8.533V265.532C460.8,260.82,456.979,256.999,452.267,256.999z M443.733,444.733H204.8V274.066h238.933
				V444.733z"/>
			<circle cx="324.267" cy="308.201" r="8.533"/>
			<path d="M298.667,419.134h51.2c4.713,0,8.533-3.82,8.533-8.533s-3.82-8.533-8.533-8.533H332.8v-59.733
				c0-4.713-3.82-8.533-8.533-8.533H307.2c-4.713,0-8.533,3.821-8.533,8.533s3.82,8.533,8.533,8.533h8.533v51.2h-17.067
				c-4.713,0-8.533,3.82-8.533,8.533S293.954,419.134,298.667,419.134z"/>
		</g>
	</g>
</g>
<g>
</g>
<g>
</g>
<g>
</g>
<g>
</g>
<g>
</g>
<g>
</g>
<g>
</g>
<g>
</g>
<g>
</g>
<g>
</g>
<g>
</g>
<g>
</g>
<g>
</g>
<g>
</g>
<g>
</g>
</svg>
