<?xml version="1.0" encoding="iso-8859-1"?>
<!-- Generator: Adobe Illustrator 19.0.0, SVG Export Plug-In . SVG Version: 6.00 Build 0)  -->
<svg version="1.1" id="Layer_1" xmlns="http://www.w3.org/2000/svg" xmlns:xlink="http://www.w3.org/1999/xlink" x="0px" y="0px"
	 viewBox="0 0 512 512" style="enable-background:new 0 0 512 512;" xml:space="preserve">
<g>
	<ellipse style="fill:#FBB429;" cx="171.041" cy="118.219" rx="160.841" ry="66.356"/>
	<path style="fill:#FBB429;" d="M171.039,460.142c88.829,0,160.839-29.71,160.839-66.36V118.218c0,36.65-72.01,66.36-160.839,66.36
		V460.142z"/>
	<path style="fill:#FBB429;" d="M171.039,184.847v-0.268c-88.829-0.001-160.839-29.711-160.839-66.361v275.563
		c0,36.65,72.01,66.36,160.839,66.36h330.762V184.847H171.039z"/>
</g>
<g>
	<path style="fill:#603813;" d="M151.917,127.293h38.242c5.632,0,10.199-4.566,10.199-10.199c0-5.633-4.567-10.199-10.199-10.199
		h-38.242c-5.632,0-10.199,4.566-10.199,10.199C141.718,122.727,146.285,127.293,151.917,127.293z"/>
	<path style="fill:#603813;" d="M501.801,174.647H342.077v-56.429c0-22.126-18.972-42.139-53.418-56.352
		c-31.583-13.032-73.356-20.208-117.62-20.208S85.001,48.835,53.417,61.866C18.972,76.079,0,96.092,0,118.218v275.564
		c0,22.126,18.972,42.139,53.417,56.352c31.584,13.032,73.356,20.208,117.62,20.208h330.763c5.632,0,10.199-4.566,10.199-10.199
		V184.846C512,179.213,507.433,174.647,501.801,174.647z M288.467,174.647c0.063-0.027,0.129-0.051,0.192-0.078
		c13.433-5.542,24.501-11.97,33.02-19.058v19.135h-33.212V174.647z M171.038,62.057c88.775,0,150.64,29.598,150.64,56.161
		s-61.862,56.16-150.632,56.161c-0.003,0-0.005,0-0.008,0s-0.006,0-0.009,0c-88.769-0.001-150.63-29.598-150.63-56.161
		S82.264,62.057,171.038,62.057z M491.602,195.045v254.896h-66.849V283.538c0-5.633-4.567-10.199-10.199-10.199
		c-5.632,0-10.199,4.566-10.199,10.199v166.405H262.116v-209.19c0-5.633-4.567-10.199-10.199-10.199s-10.199,4.566-10.199,10.199
		v209.19h-70.68c-25.505,0-48.782-2.447-69.016-6.559V240.753c0-5.633-4.567-10.199-10.199-10.199s-10.199,4.566-10.199,10.199
		v197.647c-38.163-11.054-61.225-28.402-61.225-44.618v-238.27c8.518,7.087,19.586,13.515,33.019,19.058
		c31.027,12.802,71.887,19.948,115.283,20.195L491.602,195.045z"/>
	<path style="fill:#603813;" d="M414.554,258.04c5.632,0,10.199-4.566,10.199-10.199v-7.087c0-5.633-4.567-10.199-10.199-10.199
		c-5.632,0-10.199,4.566-10.199,10.199v7.087C404.355,253.474,408.922,258.04,414.554,258.04z"/>
</g>
<g>
</g>
<g>
</g>
<g>
</g>
<g>
</g>
<g>
</g>
<g>
</g>
<g>
</g>
<g>
</g>
<g>
</g>
<g>
</g>
<g>
</g>
<g>
</g>
<g>
</g>
<g>
</g>
<g>
</g>
</svg>
